<svg xmlns="http://www.w3.org/2000/svg" xmlns:xlink="http://www.w3.org/1999/xlink" viewBox="0 0 1189.44 1189.44"><defs><style>.cls-1{fill:url(#Gradiente_sem_nome_14);}.cls-2{fill:#e2e3e4;}.cls-3{fill:#fff;}.cls-4{fill:#dbdcdd;}.cls-5{fill:#e5e6e7;}.cls-6{fill:#ebecec;}.cls-7{fill:#f7f7f8;}.cls-8{fill:#d4d5d6;}.cls-9{fill:#c8cacb;}.cls-10{fill:#c0c1c3;}.cls-11{fill:#b4b6b8;}.cls-12{fill:#c4c5c7;}.cls-13{fill:#bbbdbf;}.cls-14{fill:#dfe0e1;}.cls-15{fill:#a8abad;}.cls-16{fill:#cfd1d2;}.cls-17{fill:#7d7f81;}.cls-18{fill:#929497;}.cls-19{fill:#9c9ea1;}.cls-20{fill:#f1f1f2;}.cls-21{fill:#e8e8e9;}.cls-22{fill:#c1c3c5;}.cls-23{fill:#a1a3a5;}.cls-24{fill:#b0b2b4;}</style><linearGradient id="Gradiente_sem_nome_14" x1="594.72" x2="594.72" y2="1189.44" gradientUnits="userSpaceOnUse"><stop offset="0" stop-color="#13e5bb"/><stop offset="1" stop-color="#8003c9"/></linearGradient></defs><g id="Camada_2" data-name="Camada 2"><g id="Layer_1" data-name="Layer 1"><circle class="cls-1" cx="594.72" cy="594.72" r="594.72"/><polygon class="cls-2" points="477.9 367.58 335.4 609.4 587.67 597.08 477.9 367.58"/><path class="cls-3" d="M334.72,609.81l143.21-243,.31.63,110,230-.57,0ZM477.87,368.38,336.08,609l251-12.26Z"/><polygon class="cls-4" points="587.67 597.08 725.76 395.22 477.9 367.58 587.67 597.08"/><path class="cls-3" d="M587.62,597.83l-.28-.59L477.27,367.13l.67.08,248.49,27.71-.36.51ZM478.53,368l109.2,228.3L725.1,395.52Z"/><polygon class="cls-5" points="725.76 395.22 663.24 241.49 477.9 367.58 725.76 395.22"/><path class="cls-3" d="M726.35,395.66l-.63-.07L476.85,367.84l.84-.57L663.41,240.92l.18.43ZM479,367.32l246.23,27.46L663.07,242.06Z"/><polygon class="cls-6" points="477.9 367.58 663.24 241.49 424.35 258.87 477.9 367.58"/><path class="cls-3" d="M477.75,368.13l-.19-.38L423.77,258.54l.56,0L664.6,241ZM424.94,259.21,478.05,367,661.87,242Z"/><polygon class="cls-7" points="663.24 241.49 587.67 227.68 424.35 258.87 663.24 241.49"/><path class="cls-3" d="M424.38,259.25l-.1-.75,163.39-31.2h.07l78.46,14.34Zm163.3-31.19L430.76,258l229.52-16.7Z"/><polygon class="cls-8" points="724.47 395.22 846.67 402.99 663.24 241.49 724.47 395.22"/><path class="cls-3" d="M847.75,403.44l-123.54-7.86-.09-.22L662.31,240.18Zm-123-8.58,120.87,7.69L664.17,242.81Z"/><polygon class="cls-9" points="846.24 402.99 785.24 287.48 663.24 241.49 846.24 402.99"/><path class="cls-3" d="M847.53,404.63,661.46,240.42l124,46.76.07.12ZM665,242.57,845,401.35,785,287.78Z"/><polygon class="cls-10" points="846.67 402.99 886.4 388.31 785.24 287.48 846.67 402.99"/><path class="cls-3" d="M846.5,403.46l-62.77-118,103.35,103ZM786.74,289.51l60.11,113,38.87-14.37Z"/><polygon class="cls-11" points="918.33 440.13 886.4 388.31 846.67 402.99 918.33 440.13"/><path class="cls-3" d="M919.36,441.08l-73.61-38.15,40.81-15.08Zm-71.76-38,69.7,36.12-31.06-50.4Z"/><polygon class="cls-12" points="725.76 395.22 863.95 616.31 587.67 597.08 725.76 395.22"/><path class="cls-3" d="M864.66,616.73l-.74-.05L587,597.41l.37-.54L725.78,394.53l.3.49Zm-276.31-20,274.89,19.13-137.49-220Z"/><polygon class="cls-13" points="863.95 616.36 704.17 852.08 587.67 597.08 863.95 616.36"/><path class="cls-3" d="M704.11,852.85l-.28-.61L587.07,596.66,864.62,616l-.36.54ZM588.28,597.5l116,253.82,159-234.63Z"/><polygon class="cls-8" points="587.67 597.36 470.99 817.54 335.4 609.4 587.67 597.36"/><path class="cls-3" d="M471,818.28l-.34-.54L334.73,609.06l.65,0L588.32,597l-.31.58ZM336.07,609.74,471,816.8,587,597.76Z"/><polygon class="cls-14" points="335.4 609.4 470.99 817.54 316.4 826.17 335.4 609.4"/><path class="cls-3" d="M316,826.57l0-.43,19.09-217.85.59.91,136,208.68-.65,0Zm19.69-216.05L316.81,825.78l153.51-8.58Z"/><polygon class="cls-10" points="316.4 826.17 470.99 817.54 526.25 953.12 316.4 826.17"/><path class="cls-3" d="M527,954,315.17,825.87l1.21-.07,154.86-8.65.1.25ZM317.63,826.48,525.48,952.22,470.75,817.93Z"/><polygon class="cls-15" points="410.52 916.85 316.4 826.17 526.25 953.12 410.52 916.85"/><path class="cls-3" d="M529.1,954.41,410.26,917.12l-96.54-93ZM410.72,916.52,523.4,951.84,319.08,828.23Z"/><polygon class="cls-16" points="272.34 771.76 218.81 609.4 316.4 826.17 272.34 771.76"/><path class="cls-3" d="M317.93,828.66,272,771.88,218.45,609.52l.7-.27Zm-45.26-57.08,42.2,52.11-93.46-207.6Z"/><polygon class="cls-17" points="587.67 961.76 526.25 953.12 748.21 934.99 587.67 961.76"/><path class="cls-3" d="M587.68,962.14h-.06L522.85,953l225.32-18.42.1.75Zm-58-8.92,58,8.16,151.64-25.29Z"/><polygon class="cls-15" points="470.99 817.54 704.17 852.08 526.25 953.12 470.99 817.54"/><path class="cls-3" d="M526.06,953.66,470.4,817.07l.65.1,234.26,34.7-.95.54ZM471.59,818l54.85,134.59L703,852.3Z"/><polygon class="cls-18" points="704.17 852.08 748.21 934.99 526.25 953.12 704.17 852.08"/><path class="cls-3" d="M524.59,953.64l1.47-.84L704.33,851.57l.18.34,44.29,83.4-.56.05ZM704,852.6l-176.11,100,219.7-18Z"/><polygon class="cls-19" points="886.4 801.99 748.21 934.99 704.17 852.51 886.4 801.99"/><path class="cls-3" d="M748.11,935.6l-.24-.44-44.25-82.89.45-.12,183.66-50.91-1.07,1Zm-43.38-82.86,43.57,81.63L885.08,802.75Z"/><polygon class="cls-6" points="218.81 609.4 335.4 609.4 316.4 826.17 218.81 609.4"/><path class="cls-3" d="M316.65,827.64,218.23,609H335.81l0,.4ZM219.39,609.78l96.76,214.93L335,609.78Z"/><polygon class="cls-20" points="284.74 421.13 424.35 258.87 477.9 367.58 284.74 421.13"/><path class="cls-3" d="M283.65,421.82l.8-.94,140-162.68.25.51,53.75,109.11ZM424.27,259.55,285.82,420.44l191.54-53.1Z"/><polygon class="cls-20" points="218.81 609.4 284.74 421.13 335.4 609.4 218.81 609.4"/><path class="cls-3" d="M335.89,609.78H218.28l.18-.5,66.32-189.42ZM219.34,609H334.91L284.69,422.4Z"/><polygon class="cls-7" points="218.81 609.4 257.68 450.49 284.74 421.13 218.81 609.4"/><path class="cls-3" d="M219.16,609.53l-.71-.22,38.89-159,.06-.07,28.29-30.7ZM258,450.68,221,602l62.77-179.27Z"/><polygon class="cls-7" points="284.74 421.13 257.68 450.49 277.11 409.63 424.35 258.87 284.74 421.13"/><path class="cls-3" d="M256.28,452.57l20.56-43.2L424.09,258.61l.55.51L285,421.37Zm21.14-42.72-18.34,38.57,25.38-27.55L416.32,267.64Z"/><polygon class="cls-21" points="284.74 421.13 477.9 367.58 335.4 609.4 284.74 421.13"/><path class="cls-3" d="M335.27,610.36l-.23-.86L284.28,420.87l.35-.1L478.69,367l-.47.8Zm-50.08-189,50.34,187.05L477.11,368.19Z"/><polygon class="cls-22" points="587.73 597.36 704.17 852.08 470.99 817.54 587.73 597.36"/><path class="cls-3" d="M704.8,852.56l-.68-.11L470.41,817.83l.25-.47,117.1-220.85.32.69ZM471.57,817.24l232,34.37L587.71,598.2Z"/><polygon class="cls-15" points="863.95 617.22 886.4 801.99 704.17 852.08 863.95 617.22"/><path class="cls-3" d="M703.29,852.72l.57-.85L864.2,616.18l.12,1,22.49,185.09-.31.08ZM863.7,618.26,705.06,851.45,886,801.72Z"/><polygon class="cls-23" points="863.95 616.31 961.54 616.31 886.4 801.99 863.95 616.31"/><path class="cls-3" d="M886.2,803.48,863.52,615.93H962.1l-.21.52Zm-21.83-186.8L886.6,800.5,961,616.68Z"/><polygon class="cls-13" points="725.76 395.22 846.67 402.99 863.95 617.22 725.76 395.22"/><path class="cls-3" d="M864.45,618.73l-.82-1.31L725.06,394.8l122,7.84,0,.32Zm-138-223.09,137,220.07L846.33,403.35Z"/><polygon class="cls-24" points="863.95 616.31 961.54 616.31 846.67 402.99 863.95 616.31"/><path class="cls-3" d="M962.17,616.68H863.6L846.16,401.24Zm-97.88-.75h96.62L847.19,404.75Z"/><polygon class="cls-15" points="961.54 616.31 918.33 440.13 846.67 402.99 961.54 616.31"/><path class="cls-3" d="M962.6,619.08l-1.39-2.59L845.77,402.1l72.89,37.77,0,.17Zm-115-215.2L960.47,613.54,918,440.38Z"/><path class="cls-3" d="M787.45,397.34l341.34,225.45.5-.56L788.22,397l184.2-92.09-.17-.33.24-.29L760,126.58l-.24.28-.14-.34-335.37,132L226,287.11l.05.37-.37,0,27.18,307.34L90.39,745l.25.27h0l-.3.22,200,273,.3-.22.08.37,675.68-149.8-.08-.37.32.2,158-246.45-.32-.2-.16-.34L830.43,761.34l-300-235.49Zm-257.73,128L421.26,440.22,601,274.16l185.78,122.7Zm-.74.37L259.4,660.48l-5.78-65.33L420.7,440.74Zm71.89-252.5L426,258.63l332-130.69ZM759.78,127.36,971.11,304.07,601.89,273.29ZM600.13,273.89,420.66,439.75,227,287.73l197.46-28.49-.06-.37.09.22,0,.15Zm2,.17L970.89,304.8l-183.4,91.68ZM226.48,288.31l193.63,152L253.54,594.21Zm32.2,372.53L92.83,743.75l160.1-148Zm.07.8L290.18,1017,91.2,745.4Zm35.07,355.57,536.51-255L965.5,868.3Zm829.54-394.27-157.1,245L831.08,761.85ZM829.67,761.7,291,1017.72,259.47,661.28l270.16-135Z"/><path class="cls-3" d="M976,304.54a4.82,4.82,0,1,1-4.81-4.82A4.81,4.81,0,0,1,976,304.54Z"/><path class="cls-3" d="M764.59,126.86a4.82,4.82,0,1,1-4.82-4.81A4.82,4.82,0,0,1,764.59,126.86Z"/><circle class="cls-3" cx="226.03" cy="287.48" r="4.82"/><path class="cls-3" d="M95.45,745.27a4.81,4.81,0,1,1-4.81-4.82A4.81,4.81,0,0,1,95.45,745.27Z"/><path class="cls-3" d="M295.49,1018.29a4.82,4.82,0,1,1-4.82-4.82A4.82,4.82,0,0,1,295.49,1018.29Z"/><path class="cls-3" d="M971.17,868.49a4.82,4.82,0,1,1-4.82-4.82A4.82,4.82,0,0,1,971.17,868.49Z"/><path class="cls-3" d="M1129.2,622a4.82,4.82,0,1,1-4.82-4.82A4.81,4.81,0,0,1,1129.2,622Z"/></g></g></svg>