<svg xmlns="http://www.w3.org/2000/svg" xmlns:xlink="http://www.w3.org/1999/xlink" viewBox="0 0 1044.72 902.06"><defs><style>.cls-1,.cls-10,.cls-11,.cls-12,.cls-13,.cls-14,.cls-15,.cls-16,.cls-17,.cls-18,.cls-19,.cls-2,.cls-20,.cls-21,.cls-22,.cls-23,.cls-24,.cls-25,.cls-26,.cls-27,.cls-28,.cls-29,.cls-3,.cls-30,.cls-31,.cls-32,.cls-33,.cls-34,.cls-35,.cls-36,.cls-37,.cls-38,.cls-39,.cls-4,.cls-40,.cls-41,.cls-42,.cls-43,.cls-44,.cls-45,.cls-46,.cls-47,.cls-48,.cls-49,.cls-5,.cls-50,.cls-51,.cls-52,.cls-53,.cls-54,.cls-55,.cls-56,.cls-57,.cls-58,.cls-59,.cls-6,.cls-60,.cls-61,.cls-62,.cls-63,.cls-64,.cls-7,.cls-8,.cls-9{stroke:#fff;stroke-miterlimit:10;}.cls-1,.cls-10,.cls-11,.cls-12,.cls-13,.cls-14,.cls-15,.cls-16,.cls-17,.cls-18,.cls-19,.cls-2,.cls-20,.cls-21,.cls-22,.cls-23,.cls-24,.cls-25,.cls-26,.cls-27,.cls-28,.cls-29,.cls-3,.cls-30,.cls-31,.cls-32,.cls-33,.cls-34,.cls-35,.cls-36,.cls-37,.cls-38,.cls-39,.cls-4,.cls-40,.cls-41,.cls-42,.cls-43,.cls-44,.cls-45,.cls-46,.cls-47,.cls-48,.cls-49,.cls-5,.cls-50,.cls-51,.cls-52,.cls-53,.cls-54,.cls-55,.cls-56,.cls-57,.cls-58,.cls-59,.cls-6,.cls-60,.cls-61,.cls-62,.cls-63,.cls-7,.cls-8,.cls-9{stroke-width:2px;}.cls-1{fill:url(#Gradiente_sem_nome_23);}.cls-2{fill:url(#Gradiente_sem_nome_23-2);}.cls-3{fill:url(#Gradiente_sem_nome_23-3);}.cls-4{fill:url(#Gradiente_sem_nome_23-4);}.cls-5{fill:url(#Gradiente_sem_nome_23-5);}.cls-6{fill:url(#Gradiente_sem_nome_23-6);}.cls-7{fill:url(#Gradiente_sem_nome_23-7);}.cls-8{fill:url(#Gradiente_sem_nome_23-8);}.cls-9{fill:url(#Gradiente_sem_nome_23-9);}.cls-10{fill:url(#Gradiente_sem_nome_23-10);}.cls-11{fill:url(#Gradiente_sem_nome_23-11);}.cls-12{fill:url(#Gradiente_sem_nome_23-12);}.cls-13{fill:url(#Gradiente_sem_nome_23-13);}.cls-14{fill:url(#Gradiente_sem_nome_23-14);}.cls-15{fill:url(#Gradiente_sem_nome_23-15);}.cls-16{fill:url(#Gradiente_sem_nome_23-16);}.cls-17{fill:url(#Gradiente_sem_nome_23-17);}.cls-18{fill:url(#Gradiente_sem_nome_23-18);}.cls-19{fill:url(#Gradiente_sem_nome_23-19);}.cls-20{fill:url(#Gradiente_sem_nome_23-20);}.cls-21{fill:url(#Gradiente_sem_nome_23-21);}.cls-22{fill:url(#Gradiente_sem_nome_23-22);}.cls-23{fill:url(#Gradiente_sem_nome_23-23);}.cls-24{fill:url(#Gradiente_sem_nome_23-24);}.cls-25{fill:url(#Gradiente_sem_nome_23-25);}.cls-26{fill:url(#Gradiente_sem_nome_23-26);}.cls-27{fill:url(#Gradiente_sem_nome_23-27);}.cls-28{fill:url(#Gradiente_sem_nome_23-28);}.cls-29{fill:url(#Gradiente_sem_nome_23-29);}.cls-30{fill:url(#Gradiente_sem_nome_23-30);}.cls-31{fill:url(#Gradiente_sem_nome_23-31);}.cls-32{fill:url(#Gradiente_sem_nome_23-32);}.cls-33{fill:url(#Gradiente_sem_nome_23-33);}.cls-34{fill:url(#Gradiente_sem_nome_23-34);}.cls-35{fill:url(#Gradiente_sem_nome_23-35);}.cls-36{fill:url(#Gradiente_sem_nome_23-36);}.cls-37{fill:url(#Gradiente_sem_nome_23-37);}.cls-38{fill:url(#Gradiente_sem_nome_23-38);}.cls-39{fill:url(#Gradiente_sem_nome_23-39);}.cls-40{fill:url(#Gradiente_sem_nome_23-40);}.cls-41{fill:url(#Gradiente_sem_nome_23-41);}.cls-42{fill:url(#Gradiente_sem_nome_23-42);}.cls-43{fill:url(#Gradiente_sem_nome_23-43);}.cls-44{fill:url(#Gradiente_sem_nome_23-44);}.cls-45{fill:url(#Gradiente_sem_nome_23-45);}.cls-46{fill:url(#Gradiente_sem_nome_23-46);}.cls-47{fill:url(#Gradiente_sem_nome_23-47);}.cls-48{fill:url(#Gradiente_sem_nome_23-48);}.cls-49{fill:url(#Gradiente_sem_nome_23-49);}.cls-50{fill:url(#Gradiente_sem_nome_23-50);}.cls-51{fill:url(#Gradiente_sem_nome_23-51);}.cls-52{fill:url(#Gradiente_sem_nome_23-52);}.cls-53{fill:url(#Gradiente_sem_nome_23-53);}.cls-54{fill:url(#Gradiente_sem_nome_23-54);}.cls-55{fill:url(#Gradiente_sem_nome_23-55);}.cls-56{fill:url(#Gradiente_sem_nome_23-56);}.cls-57{fill:url(#Gradiente_sem_nome_23-57);}.cls-58{fill:url(#Gradiente_sem_nome_23-58);}.cls-59{fill:url(#Gradiente_sem_nome_23-59);}.cls-60{fill:url(#Gradiente_sem_nome_23-60);}.cls-61{fill:url(#Gradiente_sem_nome_23-61);}.cls-62{fill:url(#Gradiente_sem_nome_23-62);}.cls-63{fill:url(#Gradiente_sem_nome_23-64);}.cls-64{fill:#fff;}</style><linearGradient id="Gradiente_sem_nome_23" x1="250.07" y1="366.94" x2="502.35" y2="366.94" gradientUnits="userSpaceOnUse"><stop offset="0" stop-color="#13e3bb"/><stop offset="1" stop-color="#8003c9"/></linearGradient><linearGradient id="Gradiente_sem_nome_23-2" x1="249.4" y1="366.75" x2="502.93" y2="366.75" xlink:href="#Gradiente_sem_nome_23"/><linearGradient id="Gradiente_sem_nome_23-3" x1="392.57" y1="360.78" x2="640.44" y2="360.78" xlink:href="#Gradiente_sem_nome_23"/><linearGradient id="Gradiente_sem_nome_23-4" x1="391.95" y1="360.93" x2="641.1" y2="360.93" xlink:href="#Gradiente_sem_nome_23"/><linearGradient id="Gradiente_sem_nome_23-5" x1="392.57" y1="196.81" x2="640.44" y2="196.81" xlink:href="#Gradiente_sem_nome_23"/><linearGradient id="Gradiente_sem_nome_23-6" x1="391.53" y1="196.74" x2="641.02" y2="196.74" xlink:href="#Gradiente_sem_nome_23"/><linearGradient id="Gradiente_sem_nome_23-7" x1="339.03" y1="182.99" x2="577.91" y2="182.99" xlink:href="#Gradiente_sem_nome_23"/><linearGradient id="Gradiente_sem_nome_23-8" x1="338.45" y1="183.03" x2="579.28" y2="183.03" xlink:href="#Gradiente_sem_nome_23"/><linearGradient id="Gradiente_sem_nome_23-9" x1="339.03" y1="121.73" x2="577.91" y2="121.73" xlink:href="#Gradiente_sem_nome_23"/><linearGradient id="Gradiente_sem_nome_23-10" x1="338.96" y1="121.72" x2="580.88" y2="121.72" xlink:href="#Gradiente_sem_nome_23"/><linearGradient id="Gradiente_sem_nome_23-11" x1="577.91" y1="200.69" x2="761.35" y2="200.69" xlink:href="#Gradiente_sem_nome_23"/><linearGradient id="Gradiente_sem_nome_23-12" x1="576.99" y1="200.26" x2="762.42" y2="200.26" xlink:href="#Gradiente_sem_nome_23"/><linearGradient id="Gradiente_sem_nome_23-13" x1="577.91" y1="200.69" x2="760.92" y2="200.69" xlink:href="#Gradiente_sem_nome_23"/><linearGradient id="Gradiente_sem_nome_23-14" x1="576.13" y1="200.98" x2="762.21" y2="200.98" xlink:href="#Gradiente_sem_nome_23"/><linearGradient id="Gradiente_sem_nome_23-15" x1="699.91" y1="223.69" x2="801.08" y2="223.69" xlink:href="#Gradiente_sem_nome_23"/><linearGradient id="Gradiente_sem_nome_23-16" x1="698.41" y1="222.91" x2="801.76" y2="222.91" xlink:href="#Gradiente_sem_nome_23"/><linearGradient id="Gradiente_sem_nome_23-17" x1="761.35" y1="292.67" x2="833.01" y2="292.67" xlink:href="#Gradiente_sem_nome_23"/><linearGradient id="Gradiente_sem_nome_23-18" x1="760.42" y1="292.92" x2="834.04" y2="292.92" xlink:href="#Gradiente_sem_nome_23"/><linearGradient id="Gradiente_sem_nome_23-19" x1="502.35" y1="384.22" x2="778.62" y2="384.22" xlink:href="#Gradiente_sem_nome_23"/><linearGradient id="Gradiente_sem_nome_23-20" x1="501.67" y1="384.09" x2="779.33" y2="384.09" xlink:href="#Gradiente_sem_nome_23"/><linearGradient id="Gradiente_sem_nome_23-21" x1="502.35" y1="603.03" x2="778.62" y2="603.03" xlink:href="#Gradiente_sem_nome_23"/><linearGradient id="Gradiente_sem_nome_23-22" x1="501.75" y1="603.21" x2="779.3" y2="603.21" xlink:href="#Gradiente_sem_nome_23"/><linearGradient id="Gradiente_sem_nome_23-23" x1="250.07" y1="585.9" x2="502.35" y2="585.9" xlink:href="#Gradiente_sem_nome_23"/><linearGradient id="Gradiente_sem_nome_23-24" x1="249.4" y1="586.07" x2="502.99" y2="586.07" xlink:href="#Gradiente_sem_nome_23"/><linearGradient id="Gradiente_sem_nome_23-25" x1="231.08" y1="596.24" x2="385.67" y2="596.24" xlink:href="#Gradiente_sem_nome_23"/><linearGradient id="Gradiente_sem_nome_23-26" x1="230.66" y1="595.88" x2="386.33" y2="595.88" xlink:href="#Gradiente_sem_nome_23"/><linearGradient id="Gradiente_sem_nome_23-27" x1="231.08" y1="763.78" x2="440.92" y2="763.78" xlink:href="#Gradiente_sem_nome_23"/><linearGradient id="Gradiente_sem_nome_23-28" x1="229.84" y1="764.04" x2="441.7" y2="764.04" xlink:href="#Gradiente_sem_nome_23"/><linearGradient id="Gradiente_sem_nome_23-29" x1="231.08" y1="768.1" x2="440.92" y2="768.1" xlink:href="#Gradiente_sem_nome_23"/><linearGradient id="Gradiente_sem_nome_23-30" x1="228.4" y1="767.72" x2="443.78" y2="767.72" xlink:href="#Gradiente_sem_nome_23"/><linearGradient id="Gradiente_sem_nome_23-31" x1="133.48" y1="596.24" x2="231.08" y2="596.24" xlink:href="#Gradiente_sem_nome_23"/><linearGradient id="Gradiente_sem_nome_23-32" x1="133.13" y1="597.41" x2="232.61" y2="597.41" xlink:href="#Gradiente_sem_nome_23"/><linearGradient id="Gradiente_sem_nome_23-33" x1="440.92" y1="826.83" x2="662.88" y2="826.83" xlink:href="#Gradiente_sem_nome_23"/><linearGradient id="Gradiente_sem_nome_23-34" x1="437.53" y1="826.83" x2="662.94" y2="826.83" xlink:href="#Gradiente_sem_nome_23"/><linearGradient id="Gradiente_sem_nome_23-35" x1="385.67" y1="763.78" x2="618.85" y2="763.78" xlink:href="#Gradiente_sem_nome_23"/><linearGradient id="Gradiente_sem_nome_23-36" x1="385.07" y1="763.82" x2="619.98" y2="763.82" xlink:href="#Gradiente_sem_nome_23"/><linearGradient id="Gradiente_sem_nome_23-37" x1="440.92" y1="781.06" x2="662.88" y2="781.06" xlink:href="#Gradiente_sem_nome_23"/><linearGradient id="Gradiente_sem_nome_23-38" x1="439.26" y1="781.05" x2="663.48" y2="781.05" xlink:href="#Gradiente_sem_nome_23"/><linearGradient id="Gradiente_sem_nome_23-39" x1="618.85" y1="746.94" x2="801.08" y2="746.94" xlink:href="#Gradiente_sem_nome_23"/><linearGradient id="Gradiente_sem_nome_23-40" x1="618.3" y1="746.87" x2="802.4" y2="746.87" xlink:href="#Gradiente_sem_nome_23"/><linearGradient id="Gradiente_sem_nome_23-41" x1="133.48" y1="596.24" x2="250.07" y2="596.24" xlink:href="#Gradiente_sem_nome_23"/><linearGradient id="Gradiente_sem_nome_23-42" x1="132.9" y1="596.79" x2="250.48" y2="596.79" xlink:href="#Gradiente_sem_nome_23"/><linearGradient id="Gradiente_sem_nome_23-43" x1="199.41" y1="218.45" x2="392.57" y2="218.45" xlink:href="#Gradiente_sem_nome_23"/><linearGradient id="Gradiente_sem_nome_23-44" x1="198.32" y1="218.46" x2="393.11" y2="218.46" xlink:href="#Gradiente_sem_nome_23"/><linearGradient id="Gradiente_sem_nome_23-45" x1="133.48" y1="393.72" x2="250.07" y2="393.72" xlink:href="#Gradiente_sem_nome_23"/><linearGradient id="Gradiente_sem_nome_23-46" x1="132.96" y1="393.27" x2="250.56" y2="393.27" xlink:href="#Gradiente_sem_nome_23"/><linearGradient id="Gradiente_sem_nome_23-47" x1="133.48" y1="393.72" x2="199.41" y2="393.72" xlink:href="#Gradiente_sem_nome_23"/><linearGradient id="Gradiente_sem_nome_23-48" x1="133.12" y1="392.98" x2="200.36" y2="392.98" xlink:href="#Gradiente_sem_nome_23"/><linearGradient id="Gradiente_sem_nome_23-49" x1="172.35" y1="233.14" x2="339.03" y2="233.14" xlink:href="#Gradiente_sem_nome_23"/><linearGradient id="Gradiente_sem_nome_23-50" x1="170.95" y1="234.04" x2="339.31" y2="234.04" xlink:href="#Gradiente_sem_nome_23"/><linearGradient id="Gradiente_sem_nome_23-51" x1="199.41" y1="366.94" x2="392.57" y2="366.94" xlink:href="#Gradiente_sem_nome_23"/><linearGradient id="Gradiente_sem_nome_23-52" x1="198.95" y1="367.12" x2="393.37" y2="367.12" xlink:href="#Gradiente_sem_nome_23"/><linearGradient id="Gradiente_sem_nome_23-53" x1="385.67" y1="603.17" x2="618.85" y2="603.17" xlink:href="#Gradiente_sem_nome_23"/><linearGradient id="Gradiente_sem_nome_23-54" x1="385.09" y1="602.98" x2="619.48" y2="602.98" xlink:href="#Gradiente_sem_nome_23"/><linearGradient id="Gradiente_sem_nome_23-55" x1="618.85" y1="613.1" x2="801.08" y2="613.1" xlink:href="#Gradiente_sem_nome_23"/><linearGradient id="Gradiente_sem_nome_23-56" x1="617.97" y1="612.9" x2="801.49" y2="612.9" xlink:href="#Gradiente_sem_nome_23"/><linearGradient id="Gradiente_sem_nome_23-57" x1="778.62" y1="587.6" x2="876.21" y2="587.6" xlink:href="#Gradiente_sem_nome_23"/><linearGradient id="Gradiente_sem_nome_23-58" x1="778.2" y1="588.16" x2="876.77" y2="588.16" xlink:href="#Gradiente_sem_nome_23"/><linearGradient id="Gradiente_sem_nome_23-59" x1="640.44" y1="384.67" x2="778.62" y2="384.67" xlink:href="#Gradiente_sem_nome_23"/><linearGradient id="Gradiente_sem_nome_23-60" x1="639.74" y1="385.22" x2="779.12" y2="385.22" xlink:href="#Gradiente_sem_nome_23"/><linearGradient id="Gradiente_sem_nome_23-61" x1="761.35" y1="388.1" x2="876.21" y2="388.1" xlink:href="#Gradiente_sem_nome_23"/><linearGradient id="Gradiente_sem_nome_23-62" x1="760.83" y1="387.41" x2="876.84" y2="387.41" xlink:href="#Gradiente_sem_nome_23"/><linearGradient id="Gradiente_sem_nome_23-64" x1="760.44" y1="389.04" x2="877.28" y2="389.04" xlink:href="#Gradiente_sem_nome_23"/></defs><g id="Camada_2" data-name="Camada 2"><g id="Layer_1" data-name="Layer 1"><polygon class="cls-1" points="392.57 246.03 250.07 487.85 502.35 475.53 392.57 246.03"/><path class="cls-2" d="M249.4,488.26l143.21-243,.3.63,110,230-.56,0ZM392.54,246.83,250.75,487.45l251-12.27Z"/><polygon class="cls-3" points="502.35 475.53 640.44 273.67 392.57 246.03 502.35 475.53"/><path class="cls-4" d="M502.29,476.28l-.28-.59L392,245.59l.67.07L641.1,273.37l-.35.51ZM393.2,246.48l109.21,228.3L639.78,274Z"/><polygon class="cls-5" points="640.44 273.67 577.91 119.94 392.57 246.03 640.44 273.67"/><path class="cls-6" d="M641,274.11l-.62-.07L391.53,246.29l.83-.57L578.09,119.37l.17.43Zm-247.4-28.34,246.23,27.46L577.74,120.52Z"/><polygon class="cls-7" points="392.57 246.03 577.91 119.94 339.03 137.32 392.57 246.03"/><path class="cls-8" d="M392.43,246.58l-.19-.38L338.45,137l.55,0,240.28-17.48ZM339.61,137.66l53.11,107.82L576.55,120.42Z"/><polygon class="cls-9" points="577.91 119.94 502.35 106.13 339.03 137.32 577.91 119.94"/><path class="cls-10" d="M339.06,137.7,339,137l163.39-31.21h.07l78.46,14.35Zm163.29-31.19-156.91,30L575,119.78Z"/><polygon class="cls-11" points="639.14 273.67 761.35 281.44 577.91 119.94 639.14 273.67"/><path class="cls-12" d="M762.42,281.89,638.88,274l-.08-.22L577,118.63Zm-123-8.58L760.28,281,578.84,121.26Z"/><polygon class="cls-13" points="760.92 281.44 699.91 165.93 577.91 119.94 760.92 281.44"/><path class="cls-14" d="M762.21,283.08,576.13,118.87l124,46.76.06.13ZM579.7,121,759.63,279.81l-60-113.58Z"/><polygon class="cls-15" points="761.35 281.44 801.08 266.76 699.91 165.93 761.35 281.44"/><path class="cls-16" d="M761.17,281.91l-62.76-118,103.35,103ZM701.41,168l60.12,113,38.87-14.37Z"/><polygon class="cls-17" points="833.01 318.58 801.08 266.76 761.35 281.44 833.01 318.58"/><path class="cls-18" d="M834,319.53l-73.62-38.14,40.82-15.09Zm-71.76-38L832,317.62l-31.06-50.4Z"/><polygon class="cls-19" points="640.44 273.67 778.62 494.76 502.35 475.53 640.44 273.67"/><path class="cls-20" d="M779.33,495.19l-.73-.06L501.67,475.86l.37-.54L640.45,273l.31.48ZM503,475.2l274.89,19.14-137.5-220Z"/><polygon class="cls-21" points="778.62 494.81 618.85 730.54 502.35 475.53 778.62 494.81"/><path class="cls-22" d="M618.78,731.3l-.27-.61L501.75,475.11,779.3,494.48l-.37.54ZM503,476l116,253.82L778,495.14Z"/><polygon class="cls-23" points="502.35 475.81 385.67 695.99 250.07 487.85 502.35 475.81"/><path class="cls-24" d="M385.7,696.73l-.35-.54-136-208.68.66,0L503,475.4l-.31.58ZM250.75,488.2,385.63,695.25l116.08-219Z"/><polygon class="cls-25" points="250.07 487.85 385.67 695.99 231.07 704.63 250.07 487.85"/><path class="cls-26" d="M230.66,705l0-.43,19.1-217.85.59.91L386.33,696.33l-.64,0Zm19.69-216L231.49,704.23,385,695.65Z"/><polygon class="cls-27" points="231.07 704.63 385.67 695.99 440.92 831.58 231.07 704.63"/><path class="cls-28" d="M441.7,832.48,229.84,704.32l1.21-.07,154.86-8.65.1.25ZM232.31,704.93,440.15,830.67,385.42,696.38Z"/><polygon class="cls-29" points="325.2 795.3 231.07 704.63 440.92 831.58 325.2 795.3"/><path class="cls-30" d="M443.78,832.86,324.94,795.57l-96.54-93ZM325.39,795l112.68,35.32L233.75,706.68Z"/><polygon class="cls-31" points="187.01 650.21 133.48 487.85 231.07 704.63 187.01 650.21"/><path class="cls-32" d="M232.61,707.11l-46-56.78L133.13,488l.7-.27ZM187.35,650l42.2,52.11-93.47-207.6Z"/><polygon class="cls-33" points="502.35 840.21 440.92 831.58 662.88 813.44 502.35 840.21"/><path class="cls-34" d="M502.36,840.59h-.06l-64.77-9.1,225.32-18.41.09.74Zm-58-8.92,58,8.16L654,814.54Z"/><polygon class="cls-35" points="385.67 695.99 618.85 730.54 440.92 831.58 385.67 695.99"/><path class="cls-36" d="M440.74,832.11,385.07,695.52l.65.1L620,730.33l-1,.53ZM386.26,696.46,441.11,831,617.72,730.75Z"/><polygon class="cls-37" points="618.85 730.54 662.88 813.44 440.92 831.58 618.85 730.54"/><path class="cls-38" d="M439.26,832.09l1.48-.84L619,730l.18.34,44.3,83.41-.57,0Zm179.44-101-176.11,100,219.69-17.95Z"/><polygon class="cls-39" points="801.08 680.44 662.88 813.44 618.85 730.96 801.08 680.44"/><path class="cls-40" d="M662.78,814.05l-.23-.43L618.3,730.73l.45-.13L802.4,679.69l-1.06,1ZM619.4,731.2,663,812.83,799.75,681.2Z"/><polygon class="cls-41" points="133.48 487.85 250.07 487.85 231.07 704.63 133.48 487.85"/><path class="cls-42" d="M231.32,706.09,132.9,487.48H250.48l0,.41ZM134.06,488.23l96.77,214.93,18.84-214.93Z"/><polygon class="cls-43" points="199.41 299.58 339.03 137.32 392.57 246.03 199.41 299.58"/><path class="cls-44" d="M198.32,300.27l.81-.93,140-162.69.25.51,53.75,109.11ZM338.94,138,200.5,298.89,392,245.79Z"/><polygon class="cls-45" points="133.48 487.85 199.41 299.58 250.07 487.85 133.48 487.85"/><path class="cls-46" d="M250.56,488.23H133l.17-.5,66.33-189.42ZM134,487.48H249.59L199.36,300.85Z"/><polygon class="cls-47" points="133.48 487.85 172.35 328.94 199.41 299.58 133.48 487.85"/><path class="cls-48" d="M133.84,488l-.72-.22,38.89-159,.07-.07L200.36,298ZM172.7,329.13l-37,151.3,62.77-179.26Z"/><polygon class="cls-49" points="199.41 299.58 172.35 328.94 191.78 288.08 339.03 137.32 199.41 299.58"/><path class="cls-50" d="M171,331l20.56-43.2L338.76,137.06l.55.51L199.69,299.83Zm21.14-42.72-18.33,38.57,25.37-27.54L331,146.09Z"/><polygon class="cls-51" points="199.41 299.58 392.57 246.03 250.07 487.85 199.41 299.58"/><path class="cls-52" d="M249.94,488.81l-.23-.86L199,299.32l.36-.1,194.06-53.8-.47.8Zm-50.07-189,50.34,187.05L391.78,246.64Z"/><polygon class="cls-53" points="502.41 475.81 618.85 730.54 385.67 695.99 502.41 475.81"/><path class="cls-54" d="M619.48,731l-.69-.1-233.7-34.63.25-.47L502.43,475l.32.69ZM386.25,695.7l232,34.36L502.38,476.66Z"/><polygon class="cls-55" points="778.62 495.67 801.08 680.44 618.85 730.54 778.62 495.67"/><path class="cls-56" d="M618,731.17l.57-.84L778.87,494.64l.12,1,22.5,185.09-.31.09Zm160.4-234.46L619.73,729.91l180.94-49.74Z"/><polygon class="cls-57" points="778.62 494.76 876.21 494.76 801.08 680.44 778.62 494.76"/><path class="cls-58" d="M800.88,681.93,778.2,494.39h98.57l-.21.51ZM779.05,495.14,801.28,679l74.38-183.82Z"/><polygon class="cls-59" points="640.44 273.67 761.35 281.44 778.62 495.67 640.44 273.67"/><path class="cls-60" d="M779.12,497.18l-.82-1.31L639.74,273.25l122,7.84,0,.32Zm-138-223.09,137,220.07L761,281.8Z"/><polygon class="cls-61" points="778.62 494.76 876.21 494.76 761.35 281.44 778.62 494.76"/><path class="cls-62" d="M876.84,495.14H778.28L760.83,279.69ZM779,494.39h96.62L761.87,283.2Z"/><polygon class="cls-61" points="876.21 494.76 833.01 318.58 761.35 281.44 876.21 494.76"/><path class="cls-63" d="M877.28,497.53l-1.4-2.59L760.44,280.55l72.89,37.77,0,.17Zm-115-215.19L875.15,492,832.68,318.83Z"/><path class="cls-64" d="M702.12,275.79l341.35,225.45.49-.56L702.89,275.41l184.2-92.09-.16-.33.24-.29L674.69,5l-.24.29L674.31,5,338.93,137l-198.28,28.6.06.37-.38,0L167.52,473.3,5.06,623.44l.25.28h0l-.3.22L205,897l.31-.22.08.37,675.68-149.8-.08-.37.31.2,158-246.45-.31-.2-.17-.34L745.1,639.79l-300-235.48Zm-257.72,128L335.94,318.67,515.62,152.61,701.4,275.31Zm-.74.38L174.08,538.93,168.3,473.6,335.38,319.19Zm71.89-252.51L340.67,137.08,672.72,6.4ZM674.46,5.82l211.32,176.7L516.56,151.74ZM514.8,152.34,335.34,318.2l-193.71-152L339.08,137.7l-.05-.38.08.22,0,.16Zm2,.17,368.75,30.74-183.4,91.68ZM141.16,166.76l193.62,152L168.21,472.66Zm32.19,372.53L7.51,622.2l160.09-148Zm.07.81,31.43,355.34L5.88,623.85ZM208.5,895.66l536.5-255L880.17,746.75ZM1038,501.39l-157.09,245L745.76,640.31ZM744.34,640.15l-538.67,256L174.15,539.74,444.31,404.68Z"/><path class="cls-64" d="M890.66,183a4.82,4.82,0,1,1-4.82-4.82A4.81,4.81,0,0,1,890.66,183Z"/><path class="cls-64" d="M679.26,5.32A4.82,4.82,0,1,1,674.45.5,4.81,4.81,0,0,1,679.26,5.32Z"/><circle class="cls-64" cx="140.71" cy="165.93" r="4.82"/><path class="cls-64" d="M10.13,623.72a4.82,4.82,0,1,1-4.82-4.82A4.81,4.81,0,0,1,10.13,623.72Z"/><path class="cls-64" d="M210.16,896.74a4.82,4.82,0,1,1-4.81-4.81A4.81,4.81,0,0,1,210.16,896.74Z"/><path class="cls-64" d="M885.84,746.94a4.82,4.82,0,1,1-4.81-4.81A4.81,4.81,0,0,1,885.84,746.94Z"/><path class="cls-64" d="M1043.87,500.49a4.82,4.82,0,1,1-4.81-4.82A4.81,4.81,0,0,1,1043.87,500.49Z"/></g></g></svg>